<?xml version="1.0" encoding="iso-8859-1"?>
<!-- Generator: Adobe Illustrator 19.0.0, SVG Export Plug-In . SVG Version: 6.00 Build 0)  -->
<svg xmlns="http://www.w3.org/2000/svg" xmlns:xlink="http://www.w3.org/1999/xlink" version="1.1" id="Capa_1" x="0px" y="0px" viewBox="0 0 512 512" style="enable-background:new 0 0 512 512;" xml:space="preserve" width="512px" height="512px">
<g>
	<g>
		<g>
			<path d="M512,307.2c-0.011-9.421-7.645-17.056-17.067-17.067h-51.2V119.467c0-0.182-0.093-0.344-0.105-0.524     c-0.046-0.755-0.195-1.499-0.441-2.214c-0.08-0.268-0.174-0.533-0.282-0.792c-0.403-0.928-0.97-1.776-1.673-2.503L330.301,2.5     c-0.727-0.703-1.575-1.27-2.504-1.673c-0.259-0.119-0.522-0.188-0.792-0.282c-0.713-0.245-1.456-0.393-2.208-0.44     C324.614,0.094,324.45,0,324.267,0H110.933c-14.132,0.015-25.585,11.468-25.6,25.6v76.8c0,4.713,3.821,8.533,8.533,8.533     c4.713,0,8.533-3.82,8.533-8.533V25.6c0.006-4.71,3.823-8.527,8.533-8.533h204.8V102.4c0.015,14.132,11.468,25.585,25.6,25.6     h85.333v298.667h-51.2V409.6c-0.017-3.005-0.836-5.951-2.373-8.533c1.537-2.582,2.356-5.528,2.373-8.533v-17.067     c-0.009-9.422-7.645-17.057-17.067-17.067h-51.2c-9.422,0.009-17.057,7.645-17.067,17.067v17.067     c0.017,3.005,0.836,5.951,2.373,8.533c-1.537,2.582-2.356,5.528-2.373,8.533v17.067c0.017,3.005,0.836,5.951,2.373,8.533     c-1.537,2.582-2.356,5.528-2.373,8.533V460.8c0.017,3.005,0.836,5.951,2.373,8.533c-1.537,2.582-2.356,5.528-2.373,8.533v17.067     h-179.2c-4.71-0.006-8.527-3.823-8.533-8.533v-51.2c0-4.713-3.821-8.533-8.533-8.533c-4.713,0-8.533,3.82-8.533,8.533v51.2     c0.015,14.132,11.468,25.585,25.6,25.6H435.2c1.232-0.012,2.445-0.295,3.556-0.828c1.608,0.525,3.286,0.804,4.978,0.828h51.2     c9.421-0.011,17.056-7.645,17.067-17.067v-17.067c-0.017-3.005-0.837-5.951-2.374-8.533c1.537-2.582,2.357-5.528,2.374-8.533     v-17.067c-0.017-3.005-0.837-5.951-2.374-8.533c1.537-2.582,2.357-5.528,2.374-8.533V409.6c-0.017-3.005-0.837-5.951-2.374-8.533     c1.537-2.582,2.357-5.528,2.374-8.533v-17.067c-0.017-3.005-0.837-5.951-2.374-8.533c1.537-2.582,2.357-5.528,2.374-8.533     v-17.067c-0.017-3.005-0.837-5.951-2.374-8.533c1.537-2.582,2.357-5.528,2.374-8.533V307.2z M341.333,110.933     c-4.71-0.006-8.527-3.823-8.533-8.533V29.133l81.8,81.8H341.333z M358.4,494.933h-51.2v-17.067h51.2V494.933z M358.4,460.8h-51.2     v-17.067h51.2V460.8z M307.2,426.667V409.6h51.2l0.012,17.067H307.2z M307.2,392.533v-17.067h51.2l0.012,17.067H307.2z      M426.667,494.933h-51.2v-17.067h51.2V494.933z M426.667,460.8h-51.2v-17.067h51.2V460.8z M443.733,494.933v-17.067h51.2     l0.009,17.067H443.733z M443.733,460.8v-17.067h51.2l0.009,17.067H443.733z M443.733,426.667V409.6h51.2l0.009,17.067H443.733z      M443.733,392.533v-17.067h51.2l0.009,17.067H443.733z M443.733,358.4v-17.067h51.2l0.009,17.067H443.733z M443.733,324.267     V307.2h51.2l0.009,17.067H443.733z" fill="#d85f70"/>
			<path d="M170.667,187.733H384c4.713,0,8.533-3.82,8.533-8.533s-3.82-8.533-8.533-8.533H170.667c-4.713,0-8.533,3.82-8.533,8.533     S165.954,187.733,170.667,187.733z" fill="#d85f70"/>
			<path d="M170.667,230.4H384c4.713,0,8.533-3.82,8.533-8.533s-3.82-8.533-8.533-8.533H170.667c-4.713,0-8.533,3.82-8.533,8.533     S165.954,230.4,170.667,230.4z" fill="#d85f70"/>
			<path d="M170.667,273.067H384c4.713,0,8.533-3.82,8.533-8.533S388.713,256,384,256H170.667c-4.713,0-8.533,3.82-8.533,8.533     S165.954,273.067,170.667,273.067z" fill="#d85f70"/>
			<path d="M384,298.667H187.733c-4.713,0-8.533,3.82-8.533,8.533s3.82,8.533,8.533,8.533H384c4.713,0,8.533-3.82,8.533-8.533     S388.713,298.667,384,298.667z" fill="#d85f70"/>
			<path d="M173.246,448.738c2.458,2.394,6.11,3.083,9.271,1.749c3.161-1.334,5.216-4.431,5.216-7.862v-92.758     c0-1.996-0.7-3.93-1.979-5.463l-40.688-48.825v-82.246c0-41.888-43.646-81.488-45.504-83.154c-3.24-2.909-8.152-2.909-11.392,0     c-1.858,1.667-45.504,41.267-45.504,83.154v82.246L1.979,344.404C0.7,345.937,0,347.87,0,349.867v92.758     c0,3.431,2.055,6.528,5.216,7.862c3.161,1.334,6.814,0.645,9.271-1.749L54.669,409.6h78.396L173.246,448.738z M145.067,322.238     l25.6,30.717V422.4l-25.6-24.933V322.238z M42.667,397.467l-25.6,24.933v-69.446l25.6-30.717V397.467z M93.867,148.504     L93.867,148.504c9.819,10.209,29.22,32.912,33.319,56.296H60.548C64.647,181.416,84.047,158.714,93.867,148.504z M128,392.533     H59.733v-25.6H128V392.533z M128,298.667v51.2H59.733v-128H128V298.667z" fill="#d85f70"/>
			<path d="M85.333,256H102.4c4.713,0,8.533-3.82,8.533-8.533s-3.82-8.533-8.533-8.533H85.333c-4.713,0-8.533,3.82-8.533,8.533     S80.62,256,85.333,256z" fill="#d85f70"/>
			<path d="M85.333,290.133H102.4c4.713,0,8.533-3.82,8.533-8.533s-3.82-8.533-8.533-8.533H85.333c-4.713,0-8.533,3.821-8.533,8.533     S80.62,290.133,85.333,290.133z" fill="#d85f70"/>
		</g>
	</g>
</g>
<g>
</g>
<g>
</g>
<g>
</g>
<g>
</g>
<g>
</g>
<g>
</g>
<g>
</g>
<g>
</g>
<g>
</g>
<g>
</g>
<g>
</g>
<g>
</g>
<g>
</g>
<g>
</g>
<g>
</g>
</svg>
